<svg xmlns="http://www.w3.org/2000/svg" viewBox="0 0 600 400">
  <defs>
    <linearGradient id="bg" x1="0" y1="0" x2="0" y2="1">
      <stop offset="0%" stop-color="#00b4d8"/>
      <stop offset="100%" stop-color="#90e0ef"/>
    </linearGradient>
  </defs>
  <rect width="600" height="400" rx="30" fill="url(#bg)"/>
  <path d="M0 280 C150 240 450 320 600 280 L600 400 L0 400 Z" fill="#caf0f8" opacity="0.85"/>
  <path d="M180 260 C220 200 380 200 420 260 L420 320 L180 320 Z" fill="#ffb703"/>
  <path d="M260 120 L240 220 L340 220 L320 120 Z" fill="#ffffff"/>
  <path d="M260 120 C260 90 280 70 300 70 C320 70 340 90 340 120 Z" fill="#ff8c00"/>
  <circle cx="106" cy="190" r="60" fill="#fff7c0"/>
  <path d="M70 190 C110 180 130 200 150 190" stroke="#ffb703" stroke-width="18" fill="none" stroke-linecap="round"/>
</svg>
